<?xml version="1.0" encoding="UTF-8" standalone="no"?>
<!DOCTYPE svg PUBLIC "-//W3C//DTD SVG 1.1//EN"
 "http://www.w3.org/Graphics/SVG/1.1/DTD/svg11.dtd">
<!-- Generated by graphviz version 2.38.0 (20140413.2041)
 -->
<!-- Title: domainModel Pages: 1 -->
<svg width="227pt" height="690pt"
 viewBox="0.00 0.00 227.16 690.00" xmlns="http://www.w3.org/2000/svg" xmlns:xlink="http://www.w3.org/1999/xlink">
<g id="graph0" class="graph" transform="scale(1 1) rotate(0) translate(4 686)">
<title>domainModel</title>
<polygon fill="white" stroke="none" points="-4,4 -4,-686 223.16,-686 223.16,4 -4,4"/>
<!-- Album -->
<g id="node1" class="node"><title>Album</title>
<ellipse fill="none" stroke="black" cx="57.3563" cy="-280" rx="36" ry="36"/>
<text text-anchor="middle" x="57.3563" y="-275.8" font-family="Times,serif" font-size="14.00">Album</text>
</g>
<!-- Band -->
<g id="node2" class="node"><title>Band</title>
<ellipse fill="none" stroke="black" cx="134.356" cy="-158" rx="36" ry="36"/>
<text text-anchor="middle" x="134.356" y="-153.8" font-family="Times,serif" font-size="14.00">Band</text>
</g>
<!-- Album&#45;&gt;Band -->
<g id="edge1" class="edge"><title>Album&#45;&gt;Band</title>
<path fill="none" stroke="black" d="M51.9971,-244.059C51.8682,-233.247 53.3942,-221.65 58.5389,-212 65.1195,-199.657 72.8894,-202.011 84.3563,-194 88.3791,-191.19 92.5828,-188.251 96.7703,-185.322"/>
<polygon fill="black" stroke="black" points="99.0928,-187.968 105.28,-179.367 95.0796,-182.233 99.0928,-187.968"/>
<text text-anchor="start" x="59.3563" y="-214.8" font-family="Times,serif" font-size="14.00"> &#160;made by &#160;</text>
</g>
<!-- RecordLabel -->
<g id="node3" class="node"><title>RecordLabel</title>
<ellipse fill="none" stroke="black" cx="38.3563" cy="-36" rx="36" ry="36"/>
<text text-anchor="middle" x="38.3563" y="-31.8" font-family="Times,serif" font-size="14.00">RecordLabel</text>
</g>
<!-- Album&#45;&gt;RecordLabel -->
<g id="edge2" class="edge"><title>Album&#45;&gt;RecordLabel</title>
<path fill="none" stroke="black" d="M35.221,-251.33C24.0154,-235.533 11.5792,-214.78 5.76647,-194 -2.85381,-163.183 -0.0588403,-153.465 5.76647,-122 8.47517,-107.369 13.5994,-92.0031 18.9961,-78.4218"/>
<polygon fill="black" stroke="black" points="22.3533,-79.4623 22.9432,-68.8839 15.8853,-76.7855 22.3533,-79.4623"/>
<text text-anchor="start" x="6.35631" y="-153.8" font-family="Times,serif" font-size="14.00"> &#160;produced by &#160;</text>
</g>
<!-- Band&#45;&gt;RecordLabel -->
<g id="edge3" class="edge"><title>Band&#45;&gt;RecordLabel</title>
<path fill="none" stroke="black" d="M112.332,-129.47C98.8907,-112.668 81.5607,-91.0055 67.0534,-72.8714"/>
<polygon fill="black" stroke="black" points="69.5906,-70.4401 60.6106,-64.8179 64.1245,-74.813 69.5906,-70.4401"/>
<text text-anchor="start" x="89.3563" y="-92.8" font-family="Times,serif" font-size="14.00"> &#160;record deal &#160;</text>
</g>
<!-- Person -->
<g id="node4" class="node"><title>Person</title>
<ellipse fill="none" stroke="black" cx="112.356" cy="-646" rx="36" ry="36"/>
<text text-anchor="middle" x="112.356" y="-641.8" font-family="Times,serif" font-size="14.00">Person</text>
</g>
<!-- Review -->
<g id="node5" class="node"><title>Review</title>
<ellipse fill="none" stroke="black" cx="112.356" cy="-524" rx="36" ry="36"/>
<text text-anchor="middle" x="112.356" y="-519.8" font-family="Times,serif" font-size="14.00">Review</text>
</g>
<!-- Person&#45;&gt;Review -->
<g id="edge4" class="edge"><title>Person&#45;&gt;Review</title>
<path fill="none" stroke="black" d="M112.356,-609.968C112.356,-597.632 112.356,-583.581 112.356,-570.507"/>
<polygon fill="black" stroke="black" points="115.856,-570.283 112.356,-560.283 108.856,-570.283 115.856,-570.283"/>
<text text-anchor="start" x="112.356" y="-580.8" font-family="Times,serif" font-size="14.00"> &#160;wrote &#160;</text>
</g>
<!-- Song -->
<g id="node6" class="node"><title>Song</title>
<ellipse fill="none" stroke="black" cx="112.356" cy="-402" rx="36" ry="36"/>
<text text-anchor="middle" x="112.356" y="-397.8" font-family="Times,serif" font-size="14.00">Song</text>
</g>
<!-- Review&#45;&gt;Song -->
<g id="edge5" class="edge"><title>Review&#45;&gt;Song</title>
<path fill="none" stroke="black" d="M112.356,-487.968C112.356,-475.632 112.356,-461.581 112.356,-448.507"/>
<polygon fill="black" stroke="black" points="115.856,-448.283 112.356,-438.283 108.856,-448.283 115.856,-448.283"/>
<text text-anchor="start" x="112.356" y="-458.8" font-family="Times,serif" font-size="14.00"> &#160;review of &#160;</text>
</g>
<!-- Song&#45;&gt;Album -->
<g id="edge6" class="edge"><title>Song&#45;&gt;Album</title>
<path fill="none" stroke="black" d="M97.6173,-368.842C91.0824,-354.584 83.3121,-337.631 76.3489,-322.438"/>
<polygon fill="black" stroke="black" points="79.4843,-320.879 72.136,-313.247 73.1209,-323.796 79.4843,-320.879"/>
<text text-anchor="start" x="87.3563" y="-336.8" font-family="Times,serif" font-size="14.00"> &#160;on &#160;</text>
</g>
<!-- Song&#45;&gt;Band -->
<g id="edge7" class="edge"><title>Song&#45;&gt;Band</title>
<path fill="none" stroke="black" d="M117.209,-366.25C117.983,-360.173 118.732,-353.907 119.356,-348 124.525,-299.08 128.771,-242.865 131.41,-204.545"/>
<polygon fill="black" stroke="black" points="134.925,-204.447 132.111,-194.232 127.941,-203.972 134.925,-204.447"/>
<text text-anchor="start" x="129.356" y="-275.8" font-family="Times,serif" font-size="14.00"> &#160;performed by &#160;</text>
</g>
</g>
</svg>
